<svg width="64" height="64" viewBox="0 0 64 64" fill="none" xmlns="http://www.w3.org/2000/svg">
<rect width="64" height="64" fill="black"/>
<path d="M39.3333 9H55V22.0556H49.7778V14.2222H39.3333V9ZM23.6667 9V14.2222H13.2222V22.0556H8V9H23.6667ZM39.3333 56V50.7778H49.7778V42.9444H55V56H39.3333ZM23.6667 56H8V32.9444H13.2222V50.7778H23.6667V56Z" fill="white"/>
<path d="M42 32.5C42 38.299 37.299 43 31.5 43C25.701 43 21 38.299 21 32.5C21 26.701 25.701 22 31.5 22C37.299 22 42 26.701 42 32.5Z" fill="white"/>
</svg>
